<?xml version="1.0" encoding="UTF-8"?>
<!DOCTYPE svg PUBLIC "-//W3C//DTD SVG 1.1//EN" "http://www.w3.org/Graphics/SVG/1.1/DTD/svg11.dtd">
<svg xmlns="http://www.w3.org/2000/svg" version="1.1" width="117px" height="56px" style="shape-rendering:geometricPrecision; text-rendering:geometricPrecision; image-rendering:optimizeQuality; fill-rule:evenodd; clip-rule:evenodd" xmlns:xlink="http://www.w3.org/1999/xlink">
<g><path style="opacity:1" fill="#fe0000" d="M -0.5,-0.5 C 5.5,-0.5 11.5,-0.5 17.5,-0.5C 17.5,10.1667 17.5,20.8333 17.5,31.5C 20.5,31.5 23.5,31.5 26.5,31.5C 26.5,20.8333 26.5,10.1667 26.5,-0.5C 32.5,-0.5 38.5,-0.5 44.5,-0.5C 44.5,10.1667 44.5,20.8333 44.5,31.5C 50.5,31.5 56.5,31.5 62.5,31.5C 62.5,34.1667 62.5,36.8333 62.5,39.5C 56.5,39.5 50.5,39.5 44.5,39.5C 44.5,44.8333 44.5,50.1667 44.5,55.5C 38.5,55.5 32.5,55.5 26.5,55.5C 26.5,50.1667 26.5,44.8333 26.5,39.5C 17.5,39.5 8.5,39.5 -0.5,39.5C -0.5,26.1667 -0.5,12.8333 -0.5,-0.5 Z"/></g>
<g><path style="opacity:1" fill="#fe0000" d="M 80.5,-0.5 C 89.5,-0.5 98.5,-0.5 107.5,-0.5C 107.5,2.16667 107.5,4.83333 107.5,7.5C 104.5,7.5 101.5,7.5 98.5,7.5C 98.5,20.8333 98.5,34.1667 98.5,47.5C 101.5,47.5 104.5,47.5 107.5,47.5C 107.5,50.1667 107.5,52.8333 107.5,55.5C 98.5,55.5 89.5,55.5 80.5,55.5C 80.5,36.8333 80.5,18.1667 80.5,-0.5 Z"/></g>
<g><path style="opacity:1" fill="#fe0000" d="M 107.5,7.5 C 110.5,7.5 113.5,7.5 116.5,7.5C 116.5,20.8333 116.5,34.1667 116.5,47.5C 113.5,47.5 110.5,47.5 107.5,47.5C 107.5,34.1667 107.5,20.8333 107.5,7.5 Z"/></g>
</svg>
