<?xml version="1.0" encoding="UTF-8"?>
<!DOCTYPE svg PUBLIC "-//W3C//DTD SVG 1.1//EN" "http://www.w3.org/Graphics/SVG/1.1/DTD/svg11.dtd">
<svg xmlns="http://www.w3.org/2000/svg" version="1.1" width="1100px" height="1445px" style="shape-rendering:geometricPrecision; text-rendering:geometricPrecision; image-rendering:optimizeQuality; fill-rule:evenodd; clip-rule:evenodd" xmlns:xlink="http://www.w3.org/1999/xlink">
<g><path style="opacity:1" fill="#feff00" d="M 399.5,-0.5 C 466.167,-0.5 532.833,-0.5 599.5,-0.5C 599.5,197.833 599.5,396.167 599.5,594.5C 632.833,594.5 666.167,594.5 699.5,594.5C 699.5,424.5 699.5,254.5 699.5,84.5C 766.167,84.5 832.833,84.5 899.5,84.5C 899.5,254.5 899.5,424.5 899.5,594.5C 966.167,594.5 1032.83,594.5 1099.5,594.5C 1099.5,849.5 1099.5,1104.5 1099.5,1359.5C 1066.17,1359.5 1032.83,1359.5 999.5,1359.5C 999.5,1387.83 999.5,1416.17 999.5,1444.5C 699.5,1444.5 399.5,1444.5 99.5,1444.5C 99.5,1416.17 99.5,1387.83 99.5,1359.5C 66.1667,1359.5 32.8333,1359.5 -0.5,1359.5C -0.5,1217.83 -0.5,1076.17 -0.5,934.5C 32.8333,934.5 66.1667,934.5 99.5,934.5C 99.5,906.167 99.5,877.833 99.5,849.5C 132.833,849.5 166.167,849.5 199.5,849.5C 199.5,821.167 199.5,792.833 199.5,764.5C 166.167,764.5 132.833,764.5 99.5,764.5C 99.5,594.5 99.5,424.5 99.5,254.5C 132.833,254.5 166.167,254.5 199.5,254.5C 199.5,226.167 199.5,197.833 199.5,169.5C 232.833,169.5 266.167,169.5 299.5,169.5C 299.5,311.167 299.5,452.833 299.5,594.5C 332.833,594.5 366.167,594.5 399.5,594.5C 399.5,396.167 399.5,197.833 399.5,-0.5 Z M 899.5,594.5 C 899.5,707.833 899.5,821.167 899.5,934.5C 866.167,934.5 832.833,934.5 799.5,934.5C 799.5,821.167 799.5,707.833 799.5,594.5C 832.833,594.5 866.167,594.5 899.5,594.5 Z M 499.5,849.5 C 499.5,821.167 499.5,792.833 499.5,764.5C 399.5,764.5 299.5,764.5 199.5,764.5C 199.5,736.167 199.5,707.833 199.5,679.5C 332.833,679.5 466.167,679.5 599.5,679.5C 599.5,736.167 599.5,792.833 599.5,849.5C 566.167,849.5 532.833,849.5 499.5,849.5 Z M 499.5,849.5 C 499.5,877.833 499.5,906.167 499.5,934.5C 466.167,934.5 432.833,934.5 399.5,934.5C 399.5,906.167 399.5,877.833 399.5,849.5C 432.833,849.5 466.167,849.5 499.5,849.5 Z M 399.5,934.5 C 399.5,1047.83 399.5,1161.17 399.5,1274.5C 366.167,1274.5 332.833,1274.5 299.5,1274.5C 299.5,1161.17 299.5,1047.83 299.5,934.5C 332.833,934.5 366.167,934.5 399.5,934.5 Z M 599.5,1274.5 C 566.167,1274.5 532.833,1274.5 499.5,1274.5C 499.5,1246.17 499.5,1217.83 499.5,1189.5C 532.833,1189.5 566.167,1189.5 599.5,1189.5C 599.5,1217.83 599.5,1246.17 599.5,1274.5 Z M 599.5,1274.5 C 632.833,1274.5 666.167,1274.5 699.5,1274.5C 699.5,1302.83 699.5,1331.17 699.5,1359.5C 666.167,1359.5 632.833,1359.5 599.5,1359.5C 599.5,1331.17 599.5,1302.83 599.5,1274.5 Z"/></g>
</svg>
